/* XPM */
static char * crouch_samurai1_xpm[] = {
"32 32 21 1",
" 	c #161633",
".	c #19183B",
"+	c #1F1E47",
"@	c #26254E",
"#	c #1F1F41",
"$	c #C7CFDD",
"%	c #92A1B9",
"&	c #100515",
"*	c #2D2C56",
"=	c #E69C69",
"-	c #F6CA9F",
";	c #131313",
">	c #FFFFFF",
",	c #B4B4B4",
"'	c #858585",
")	c #424C6E",
"!	c #2A2F4E",
"~	c #391F21",
"{	c #1A1932",
"]	c #571C27",
"^	c #5D2C28",
" .+++++ .+.+++   .+++++ .+.+++  ",
"  .               .             ",
".@@++@.. @+@@++@.@@++@.. @+@@++@",
"..+.++.. @.+++++..+.++.. @.+++++",
"..+..++. @.+++++..+..++. @.+++++",
".+..+++. +...+#+.+..+++. +...+#+",
".+.+++.. #..+.+..+.+++.. #..+.+.",
".+.....+ +++.   .+...$$+ +++.   ",
"....            .... %$%&%%$$   ",
".......         ......%&%%$$$$  ",
"+@**@@..***@** ++@**@@.%%%==== $",
"++@@+@..*@@+++++++@@+@$%%=%$-%$+",
"++..+@. @++++++++$$$$$%%==;;-;++",
"++.+++. +...+++$$$$$%%%%%===-=++",
"+.++.+  @..++.$$$$%%>> %%$=$$$++",
"++@@++  @@++@$$$;%>>>>>,%%$%%%$ ",
"....    .....$$%;;>>>,>>,%%%$$% ",
"  .     @****%%;;-==='>,)!%%%$%@",
".@@@@@***@@@*%;;----~~{{{{{%%%%@",
".@@@@++++@#@@+%~;---~~{{{{{@%%++",
".+@..+++++#+++=~';,,))!{{{#+++++",
".]]]]]]]]]]]]-==]',))!+.+++#++#+",
"]]]]]]]]]]]]]-==];;;;{{{+##.+.+.",
".++.  .+++++.!-=]!!!{{{{{+++.   ",
"....        !!!!!!!{{{{{{{      ",
".......    !!!!!))){{{{{{{{     ",
"+@**@@@@@*!!!!!)))**{{{{{{{  **+",
"++@@+@@~~~!!!))))+@@+~~{{{{ .+++",
"+++@@@~~~~!!))))+++~~~~~{{+ ..++",
"+++++~~^^!!!)))+++~~~~~@@..  .++",
"+++++~^.. !!!..+++~~~+@..    ..+",
"++++++~^   .  + +++~~~@.   .  + "};
