/* XPM */
static char * fall_samurai3_xpm[] = {
"32 32 24 1",
" 	c #161633",
".	c #19183B",
"+	c #1F1E47",
"@	c #92A1B9",
"#	c #C3CBDB",
"$	c #C7CFDD",
"%	c #26254E",
"&	c #100515",
"*	c #1F1F41",
"=	c #E69C69",
"-	c #F6CA9F",
";	c #131313",
">	c #2D2C56",
",	c #FFFFFF",
"'	c #B4B4B4",
")	c #5D2C28",
"!	c #391F21",
"~	c #858585",
"{	c #424C6E",
"]	c #1A1932",
"^	c #2A2F4E",
"/	c #BF6F4A",
"(	c #571C27",
"_	c #0E071B",
" .++@#$ .+.+++   .+++++ .+.+++  ",
"  .@$$$$$$        .             ",
".%@@@$$$$$$%%++$$$%++%.. %+%%++%",
"..+.@@@$$$$$+++@@&@@$$.. %.+++++",
"..+..+@@@@$$#+++&@@$$$$. %.+++++",
".+..+++. @@$$$*+@@@====.$+...+*+",
".+.+++.. *.@@$$$@@=@$-@$ *..+.+.",
".+.....+ +++.@@@@==;;-;+ +++.   ",
"....           @@@===-=         ",
".......         @@$=$$$         ",
"+%>>%%..>>>%>,,''@@$@@@$>>>%>> +",
"++%%+%..>,,,,,,,''@@@$$@>%%+++++",
"++..+%. )',,,,,,,''@@@$@%+++++++",
"++.+++.))!''',,',,''@@@@@...++++",
"+.++.+-=!!.++''~',''{@@@]..++.++",
"++%%+---=%++%%~~~''{{^^]!!//%%+ ",
".... ---......~~~'~{{^^ !///..  ",
"  . ((( %>>>>>%~~~{{^^^ %///>>%%",
".%%%(((((%%%>>%~~{{^^^>>>%%%>>%%",
".%%%%+((((((%+++_;{^^^+++%*%%+++",
".+%..+++(((((((_@;;;;;++++*+++++",
".++.+++.++((((((@___^^].+++*++*+",
".+.++++++**.+(((@___{{^]+**.+.+.",
".++.  .+++++.  ^@^^{{{{]++++.   ",
"....            ^^^^{{{]]       ",
".......         .^^^{{^]]]      ",
"+%>>%%%%%>>  >>++%!^^^]]]]>  >>+",
"++%%+%%%%%% .++++!!!!]]]]]% .+++",
"+++%%%%%%++ ..+++!!!%]]]]]+ ..++",
"+++++%%%%..  .+++!!!+%]]]].  .++",
"++++++%..    ..+++!!++]]]]   ..+",
"++++++%.   .  + ++!!++!!!  .  + "};
