/* XPM */
static char * idle_samurai3_xpm[] = {
"32 32 23 1",
" 	c #161633",
".	c #19183B",
"+	c #1F1E47",
"@	c #C7CFDD",
"#	c #92A1B9",
"$	c #100515",
"%	c #26254E",
"&	c #E69C69",
"*	c #F6CA9F",
"=	c #131313",
"-	c #1F1F41",
";	c #FFFFFF",
">	c #B4B4B4",
",	c #2D2C56",
"'	c #858585",
")	c #1A1932",
"!	c #424C6E",
"~	c #2A2F4E",
"{	c #0E071B",
"]	c #5D2C28",
"^	c #391F21",
"/	c #571C27",
"(	c #BF6F4A",
" .+++++ .+.+++@@ .+++++ .+.+++  ",
"  .           #@$##@@           ",
".%%++%.. %+%%+#$##@@@@.. %+%%++%",
"..+.++.. %.++++###&&&&.@ %.+++++",
"..+..++. %.+++@##&#@*#@. %.+++++",
".+..+++. +..@@##&&==*=+. +...+-+",
".+.+++.. -@@@####&&&*&.. -..+.+.",
".+.....+ @@@# ###@&@@@.+ +++.   ",
"....    @@@#  ;>##@###@         ",
".......@@@@# ;;;>###@@#         ",
"+%,,%%.@@@#%;;;;;>###@#.,,,%,, +",
"++%%+%@@@#%+;;;>>;>#####,%%+++++",
"++..+%@@#+++;;;>'>;>###)%+++++++",
"++.+++##+..;;;>'''>'!~))+...++++",
"+.++.+ #%..;;;>''>'!!~)))..++.++",
"++%%++  %%+;;>+'''!!~~)))%++%%+ ",
"....    ...;;> !{{!~~~))).....  ",
"  .     %,,,;>#{{{{{{{{))),,,,%%",
".%%%%%,,,%%%]^#{{~~~))))^^%%,,%%",
".%%%%++++%-%]^###~~~)))^^^-%%+++",
".+%..+++++-+*&&/~~~~))))((-+++++",
".++.+++.+++-**&~!!~)))))((+-++-+",
".+.++++++--///~!!!~))))))--.+.+.",
".++.  .+++///~~!!~~))))))+++.   ",
"....     ///~~~!!~)))))))       ",
".......//// ~~!!!~))))))        ",
"+%,,%%///,, ~~!!!~))))))%,,  ,,+",
"++%%+//%%%% ~~~~~~)))))%%%% .+++",
"+++%%%%%%++ .]]^~+)^^)%%%++ ..++",
"+++++%%%%..  ]]^+++^^%%%%..  .++",
"++++++%..   ]]^++++^^^%..    ..+",
"++++++%.   .^^^ +++^^^^.   .  + "};
