/* XPM */
static char * run_samurai_L1_xpm[] = {
"32 32 25 1",
" 	c #161633",
".	c #19183B",
"+	c #1F1E47",
"@	c #26254E",
"#	c #C7CFDD",
"$	c #92A1B9",
"%	c #100515",
"&	c #1F1F41",
"*	c #E69C69",
"=	c #F6CA9F",
"-	c #131313",
";	c #C3CBDB",
">	c #2D2C56",
",	c #B4B4B4",
"'	c #FFFFFF",
")	c #424C6E",
"!	c #2A2F4E",
"~	c #571C27",
"{	c #858585",
"]	c #221C36",
"^	c #BF6F4A",
"/	c #391F21",
"(	c #1A1932",
"_	c #0E071B",
":	c #5D2C28",
" .+++++ .+.+++   .+++++ .+.+++  ",
"  .               .             ",
".@@++@.. @+@@++@.@@++@.. @+@@++@",
"..+.++.. @.+++++..+.++.. @.+++++",
"..+..+##$$%$##++..+..++. @.+++++",
".+..+####$$%$$&+.+..+++. +...+&+",
".+.#+****$$$+.+..+.+++.. &..+.+.",
".+..#$=#$*$$##  .+.....+ +++.   ",
".... -=--**$$$#;....    $       ",
".....*=***$$$$#;;;....;#$       ",
"+@>>@###*#$$,,,###;;;###$>>@>> +",
"++@@#$$$#$$,,''''######$>@@+++++",
"++..$##$$$,,''''''###$$ @+++++++",
"++.+$#$$$),,'''''''$$+. +...++++",
"+.++$$$$$!),'',,'''+.+  @..+~.++",
"++@@+$$ @!!),,{{,'''++  @@~~~@+ ",
"....    ]]!!)),{{,''    ~~~~..  ",
"  .  ^^//]]!!!)){,''  ~~~~~>>>@@",
".@@@@^^^/(@@_____/::~~~~~~@@>>@@",
".@@@@^^^+@&@!!!**::~~~~~+@&@@+++",
".+@..+++++&))!$$*=~~~~++++&+++++",
".++.+++.+++))__$==~~!(+.+++&++&+",
".+.++++++&&)___$=!!!((+++&&.+.+.",
".++.  .++++)__!!!!!(((.+++++.   ",
"....        !!!!!!((((          ",
".......      !!!/((((..         ",
"+@>>@@@@@>>  >:://(((@@@@>>  >>+",
"++@@+@@@@@@ .++:://(/@@@@@@ .+++",
"+++@@@@@@++ ..++://///@@@++ ..++",
"+++++@@@@..  .+://+////@@..  .++",
"++++++@..    ..+++++///..    ..+",
"++++++@.   .  + +++///@.   .  + "};
