/* XPM */
static char * blue_flame1_xpm[] = {
"32 32 23 1",
" 	c #161633",
".	c #19183B",
"+	c #1F1E47",
"@	c #0D54F3",
"#	c #26254E",
"$	c #2A3943",
"%	c #204865",
"&	c #2273FF",
"*	c #38ADFF",
"=	c #47FFFF",
"-	c #1F1F41",
";	c #1F546D",
">	c #256090",
",	c #2A6BB2",
"'	c #3A504E",
")	c #0C1816",
"!	c #FFFFFF",
"~	c #1A2C27",
"{	c #141C20",
"]	c #22281F",
"^	c #6CA3B7",
"/	c #546B6D",
"(	c #1B2526",
" .+++++ .+.+++ @@.+++++ .+.+++  ",
"  .          @  @ .             ",
".##++#.. $$$$$$$@$$$$$.. #+##++#",
"..+.++$$$$%%$$$%@%$%$$$$$#.+++++",
"..+..++.$$%%%%%&@%$%%%$. #.+++++",
".$$$$$$$$$$$%%%*=%$$$$$$$$$$$+-+",
"$$$$$$$$$$;;;=&==;;%$$$$$$$$$$+.",
"$$%%%$$$$$;;&=*==*;%%$%%%%%$%$$ ",
"$$%%$%%%%%%%&***==&%%$%%%%%%%$$$",
"$$$$$$$$%%;;%*==*==%%%%%%$$$$$  ",
"$$$;;%%;;;;>>===&==%%%%%%%;%%$$$",
"$$%;;%;;>>>;;===*&=;%>>;;%;%%%$$",
"$%%;;%;;>>>;;==**;;;;>>;;%;;%$$$",
"$%%%%;;;>>>>>=**&>>>>>>>;%;;;%$$",
"$$%%%;;;;;>>>>&*&>>>>>;%%%%%$$$$",
"%%%%;;;>>>>>>,&&&&>>>>;>>>>;%;;$",
"%%%%%>;;>>>>>,*==*&,>>;;>>>;%;;$",
"%%;;%>;;>>,,>*=====,,>;;>>>;%;;%",
"%;;;%>;;>>,,,======,,;;;;;;;%;;%",
"$%%%%%;;;**>*''=''*,**>>>;;%%%$$",
";;;%>>>;>))&*))=))*&))>>>;>>%%%%",
";;;%;>>;>>))*))!))&)),>>>;>>%%%%",
";;;%;;>;;>~)&~)!))&)~,>>>;;;%%%%",
"$$%%%%%%>>>~~~~~)~~~,,>%%%%;%%$$",
"$$$$$$$$$$$~&~~&)~&~$$$$%%%%%%%%",
"%$%%$%%%%${]&~~&~~&]{$%%%%%%$%%$",
"%$%%$$$$$${{^//^~~^{{$$$$$$$$$$$",
"%$%%$$$$${{{{~~))){{{$$$$$$$$$$$",
"+$$$$$$${{{{////'~~{{{$$$$$$$$$+",
"+++++##({{{{{~)))){{{{(##..  .++",
"++++++#{{{{{{~~~)){{{{{(.    ..+",
"++++++({{{{{//''~~~{{{{{   .  + "};
