/* XPM */
static char * collectible_tile1_xpm[] = {
"32 32 16 1",
" 	c #161633",
".	c #19183B",
"+	c #1F1E47",
"@	c #26254E",
"#	c #1F1F41",
"$	c #FFFFFF",
"%	c #27566B",
"&	c #C6F9F4",
"*	c #319AC6",
"=	c #18519F",
"-	c #2D2C56",
";	c #A0FCF3",
">	c #39C4D4",
",	c #68FFF0",
"'	c #236BAE",
")	c #0F2F88",
" .+++++ .+.+++   .+++++ .+.+++  ",
"  .               .             ",
".@@++@.. @+@@++@.@@++@.. @+@@++@",
"..+.++.. @.+++++..+.++.. @.+++++",
"..+..++. @.+++++..+..++. @.+++++",
".+..+++. +...+#+.+..+++. +...+#+",
".+.+++.. #..+.+..+.+++.. #..+.+.",
".+....$$$$$$$$$$$$$$$$$$$$++.   ",
".... $%%%%%%%%%%%%%%%%%%%%$     ",
"....$%$$$$&&&&$*=$&&&&$$$$%$    ",
"+@-$%&&&&&;;;$>,,>$;;;&&&&&%$- +",
"++$%;;;;,,,'$,&&&&,$',,,;;;;%$++",
"+$%,,>>*'=)$,&$$$$&,$)='*>>,,%$+",
"+$%$$$$$$$$$$$$$$$$$$$$$$$$$$%$+",
"+$%$$$$$$$$)))))))))=$$$$$$$$%$+",
"++$%&&&&&&$''======='$&&&&&&%$+ ",
"...$%&;;;;;$*'''''''$;;;;;&%$.  ",
"  . $%;,,,,$*******>$,,,,;%$--@@",
".@@@@$%,,>>>$>>>>>>$>>>,,%$@--@@",
".@@@@+$%>>**$,,;;;;$**>>%$#@@+++",
".+@..++$%***'$;,;&$'***%$+#+++++",
".++.+++.$%*''$&;&&$''*%$+++#++#+",
".+.++++++$%''=$&;$=''%$++##.+.+.",
".++.  .+++$%==$&;$==%$.+++++.   ",
"....       $%))&&))%$           ",
".......     $%)$$)%$...         ",
"+@--@@@@@--  $%$$%$-@@@@@--  --+",
"++@@+@@@@@@ .+$%%$@@+@@@@@@ .+++",
"+++@@@@@@++ ..+$$++@@@@@@++ ..++",
"+++++@@@@..  .+++++++@@@@..  .++",
"++++++@..    ..+++++++@..    ..+",
"++++++@.   .  + ++++++@.   .  + "};
