/* XPM */
static char * empty_space1_xpm[] = {
"32 32 6 1",
" 	c #161633",
".	c #19183B",
"+	c #1F1E47",
"@	c #26254E",
"#	c #1F1F41",
"$	c #2D2C56",
" .+++++ .+.+++   .+++++ .+.+++  ",
"  .               .             ",
".@@++@.. @+@@++@.@@++@.. @+@@++@",
"..+.++.. @.+++++..+.++.. @.+++++",
"..+..++. @.+++++..+..++. @.+++++",
".+..+++. +...+#+.+..+++. +...+#+",
".+.+++.. #..+.+..+.+++.. #..+.+.",
".+.....+ +++.   .+.....+ +++.   ",
"....            ....            ",
".......         .......         ",
"+@$$@@..$$$@$$ ++@$$@@..$$$@$$ +",
"++@@+@..$@@+++++++@@+@..$@@+++++",
"++..+@. @+++++++++..+@. @+++++++",
"++.+++. +...++++++.+++. +...++++",
"+.++.+  @..++.+++.++.+  @..++.++",
"++@@++  @@++@@+ ++@@++  @@++@@+ ",
"....    ......  ....    ......  ",
"  .     @$$$$$@@  .     @$$$$$@@",
".@@@@@$$$@@@$$@@.@@@@@$$$@@@$$@@",
".@@@@++++@#@@+++.@@@@++++@#@@+++",
".+@..+++++#+++++.+@..+++++#+++++",
".++.+++.+++#++#+.++.+++.+++#++#+",
".+.++++++##.+.+..+.++++++##.+.+.",
".++.  .+++++.   .++.  .+++++.   ",
"....            ....            ",
".......         .......         ",
"+@$$@@@@@$$  $$++@$$@@@@@$$  $$+",
"++@@+@@@@@@ .+++++@@+@@@@@@ .+++",
"+++@@@@@@++ ..+++++@@@@@@++ ..++",
"+++++@@@@..  .+++++++@@@@..  .++",
"++++++@..    ..+++++++@..    ..+",
"++++++@.   .  + ++++++@.   .  + "};
