/* XPM */
static char * exit_xpm[] = {
"32 32 8 1",
" 	c #070707",
".	c #151211",
"+	c #0C0B0A",
"@	c #23201D",
"#	c #2E2A25",
"$	c #3C3129",
"%	c #1B1916",
"&	c #140E0E",
"    .......     ......    ++    ",
"     ...... +            ..++++ ",
"@@@@ ++...++ ......+ .....++++  ",
"##@@@ ++++  .......+  ...++     ",
"#$#@@       .....+++        ..  ",
"#$$#@ %%%%    +++++   +++  .... ",
"#$$## @@@%%   +++  ++++++  +..+ ",
"#$$## @@@@%      ++++++++  +.+++",
"#$$## @@@@% %%%%     +++++ ++++ ",
"#$$## @@@@% %%%%%       ++      ",
"#$$##+#@@@% %%@%%           +++ ",
"$$$##+#@@@@+@@@%%+ %%%%     ++++",
"$$$##+#@@@@+@@@%%+ %%%% ++  ++++",
"$$###+##@@@+@@@%%+%%%%%++     ++",
"$$###+##@@@++@@%%+%%%%%+&&&&&   ",
"$#### ##@@@++@@%%+%%%%%+&&&&&   ",
"$#### ##@@@++@@%%+%%%%% &&&&&+  ",
"$#### ##@@@++@@%%+@%%%% %&&&&+  ",
"$$##++##@@@++@@%%+@%%%% %&&&&+&&",
"$$##++##@@@+@@@%%+@%%%% %&&&&+&&",
"$$##++##@@@+@@@%%+@%%%% %%&&&+&&",
"$$##++##@@@+@@%%%+@%%%% %%&&&+&&",
"#$##++#@@@@+@@%%%+@%%%% %%&&& &&",
"####++#@@@@+@@%%% @%%%% %%&&& &&",
"####++@@@@@ @@%%% @%%%% %%&&& &&",
"####@+@@@@@ @@%%% %%%%% %%&&& &&",
"####@+@@@@@ @@%%% %%%%% %%&&& &&",
"###@@+@@@@@ @@%%% &%%%% %%&&& &&",
"@@@@@+@@@@@ %%%%% &%%%% %&&&& &&",
"@@@@@+@@@@@ %%%&& &&%%& %&&&& &&",
"@@@@@ @@@@@ %&&&& &&&&& &&&&& &&",
"@@@@@ @@@@@ %&&&& &&&&& &&&&& &&"};
