/* XPM */
static char *_f3b92072381417ca0d762e0e0d04b63[] = {
/* columns rows colors chars-per-pixel */
"32 32 8 1 ",
"  c #1B0F2B",
". c #321E4C",
"X c #40295D",
"o c #6C4A77",
"O c #603C83",
"+ c #8F6A9B",
"@ c #B287C0",
"# c #C49ECA",
/* pixels */
"+++++++++oooooo+++++Xooooo++++++",
"+++++++++++++++++++@Xoo+++++++++",
"@@@@++++++++++++++@@Xooooo++++++",
"@@@@@@+++++@@@@@@@@@Xo+++@@@@@@@",
"@@@@@@@@@@@@XXXXXXXXXXXXXXXXXXXX",
"XXXXXXXXXXXXXoooo++++++++ooooo++",
"@@@@@@@@@@@@Xooo++++++++++++++++",
"@@@@@@@@@@@@X@+++++++@@@@@@+@@@@",
"@@@@@@@oooooX@@@@@@++@@@@@@+@@@@",
"ooooooooooooX@@@@@@@@@@@@@@@@@@@",
"XXXXXXXXXXXXXXXXXXXXXXXXXXXXXXXX",
"o+++++++++++++++oooX++++++++++++",
"+++++++++++++++++ooX++++++++++++",
"++++++++++++++++++oX+++++++@@@@@",
"+++++++++++++ooooooX+@@@@@@@@@@@",
"++++++++++++++++++o OOXOOOO@@@@@",
"+++++++++++++++++++  XXXOOOOOX.X",
"@@@@@@@@+++++++++++  XXXOOOOXX..",
"@@@@@@@@@@@@+++++++   XXOOOXXX..",
"#####@@@@@@@@@@+++o    XXXXX XX.",
"..@#############+oo          XX.",
"..XXXXOOO...XOXXX             XX",
" ..XXXXOO..XXOOX                ",
"   XXXXXO..XXOX                 ",
"        O..XX                   ",
"                                ",
"                                ",
"                                ",
"                                ",
"                                ",
"                                ",
"                                "
};
