/* XPM */
static char * torch_xpm[] = {
"32 32 19 1",
" 	c #161633",
".	c #19183B",
"+	c #1F1E47",
"@	c #26254E",
"#	c #1F1F41",
"$	c #E25C0B",
"%	c #2D2C56",
"&	c #FEAD26",
"*	c #D4AB64",
"=	c #AA8647",
"-	c #803C25",
";	c #B1611D",
">	c #4F2743",
",	c #8F6A9B",
"'	c #B287C0",
")	c #C49ECA",
"!	c #6C4A77",
"~	c #40295D",
"{	c #1B0F2B",
" .+++++ .+.+++   .+++++ .+.+++  ",
"  .               .             ",
".@@++@.. @+@@++@.@@++@.. @+@@++@",
"..+.++.. @.+++++..+.++.. @.+++++",
"..+..++. @.+++++..+..++. @.+++++",
".+..+++. +...+#+.+..+++. +...+#+",
".+.+++.. #..+.+..+.+++.. #..+.+.",
".+.....+ +++. $ .+.....+ +++.   ",
"....          $$....            ",
".......       $$.......         ",
"+@%%@@..%%%@%%$&+@%%@@..%%%@%% +",
"++@@+@..%@@+++***+@@+@..%@@+++++",
"++..+@. @+++++*=*+..+@. @+++++++",
"++.+++. +...++*==+.+++. +...++++",
"+.++.+  @..++.===.++.+  @..++.++",
"++@@++  @@++@-;;--@@++  @@++@@+ ",
"....    ......>>>...    ......  ",
"  .     @%%%%>--->.     @%%%%%@@",
".@@@@@%%%@,,')'))))',,%%%@@@%%@@",
".@@@@++++@#!,,''''',!++++@#@@+++",
".+@..+++++#!!,,',',!!+++++#+++++",
".++.+++.+++~!!!,,,!!+++.+++#++#+",
".+.++++++##.~~!!!!~~+++++##.+.+.",
".++.  .+++++{{{~~~~.  .+++++.   ",
"....            ....            ",
".......         .......         ",
"+@%%@@@@@%%  %%++@%%@@@@@%%  %%+",
"++@@+@@@@@@ .+++++@@+@@@@@@ .+++",
"+++@@@@@@++ ..+++++@@@@@@++ ..++",
"+++++@@@@..  .+++++++@@@@..  .++",
"++++++@..    ..+++++++@..    ..+",
"++++++@.   .  + ++++++@.   .  + "};
