/* XPM */
static char * wall_var2_xpm[] = {
"32 32 13 1",
" 	c #161633",
".	c #2D2C56",
"+	c #19183B",
"@	c #3A3968",
"#	c #41406F",
"$	c #1F1E47",
"%	c #26254E",
"&	c #DF530F",
"*	c #D0A46D",
"=	c #A37E50",
"-	c #AB5823",
";	c #78342C",
">	c #46204C",
"   ..+@@.@@+@#####@@ $%..% %%   ",
"   $$$$$+++++++++++++++         ",
"   ..+@@.@@+@#####@@ $%..% %%   ",
"   ..+.@...+@#.$.#@. %.$$$ $$   ",
"   $.+%%@.@$@#.&..@. $.%.% %$   ",
"   $%+%@@%.$.#$&$.@.+$..%% $+   ",
"   .%+%@...$.#$&&$.. $$%%% $+   ",
"   $.+.....$@#.&&$@. ..%%%+$+   ",
"   %%+%%...$.#.**$.. $%$$+ $+   ",
"   %$+%%%%.$...*=$@.+$$$$++$+   ",
"   %$+%%%%.$..$==$..+$$$$++$+   ",
"   $%+%%..%$.-;;;>;-+$%$$& $+   ",
"   $%+%&...$.; ;-; ; $$$$& $+   ",
"   $%+%&...$.>>;-;>> $%$$&+$&   ",
"   $$+**.&.$.$ ;-; $ $$$*=++&   ",
"   $%+==.==$$$ ;-; $+$$$== $=   ",
"   $%+==%==$$$ ;-; $+$$$==+$=   ",
"   $=;===;;++>>>>>>++++;=;; =   ",
" @@@#####@@#@#####@@@@@@@@@@@@@ ",
" ....@@@@@@#########.@@@.@@@... ",
" .$..$...###### $#@@.$$.$.$$.$. ",
"   +++$$$$$$###  ##@            ",
"   $%+%@...$#     $@ $+$++ ++   ",
"   $.+.....$#$    $. $$$%%+++   ",
"   %%+%%...$###  @@@ $%$$+ $+   ",
"   %$+%%%%.$#@@  @@. $$$$++$+   ",
"   %$+%%%%.$#@@  @@@ $$$$++$+   ",
"   $%+%%..%$..@$$@.. $%$$$ $+   ",
"   $%+%%... $......  $$$$+ $+   ",
"   $%+%%%%%$         $%$$++$+   ",
"   $$$$$+++++++++++++++         ",
"   ..+@@.@@+@#####@@ $%..% %%   "};
