/* XPM */
static char * ghost_idle1_xpm[] = {
"32 32 11 1",
" 	c #161633",
".	c #19183B",
"+	c #1F1E47",
"@	c #251E30",
"#	c #26254E",
"$	c #181220",
"%	c #1F1F41",
"&	c #00627C",
"*	c #00AED7",
"=	c #2D2C56",
"-	c #60DDF3",
" .+++++ .+.+++@@@@+++++ .+.+++  ",
"  .         @@@@@@@             ",
".##++#.. #+@$$$$@@@++#.. #+##++#",
"..+.++.. #@@$$$$@@@@++.. #.+++++",
"..+..++. #@$$$$$$@@@@++. #.+++++",
".+..+++. +@$$$$$$@@$$++. +...+%+",
".+.+++.. %@$$$$$$$@@$$.. %..+.+.",
".+.....+ +@$$$$$$$@@@@$+ +++.   ",
"....      $$&$$*$$@@@@$         ",
".......  @$$$$$$$$$@@@$         ",
"+#==##..=@$$$$$$$$$@@@$@===#== +",
"++##+#..=@@$$$$$$$@@$$$@=##+++++",
"++..+#. #@@@$$$$$@@@$$$@#+++++++",
"++.+++. +@@@$$$$$@$$$$@@@...++++",
"+.++.+  #$@@$$$$@$$$$@@@@..++.++",
"++##++  @$$$@$$@@$$$$@@@@@++##+ ",
"....   @@@$$@$$@@$$$@@@@@@....  ",
"  .   @@$@@$@$@@@$$@@@@@@@@===##",
".#####@$@$@$@$@@@$$@@$$$$@@#==##",
".####@@$@$$@@$@@@@$$$$@@@@@@#+++",
".+#..@$@@@$$@@@@@$$$@$$$@@@@@+++",
".++.+@@@@**$@@@@$$@@@@@$$@@@@+%+",
".+.++@$--&$$@@@@**$$$$@@$@@@$.+.",
".++. @$*&&$$@@@*---*&$@@@@@@.   ",
"....  $$--$$@@@@*--*&$@@@@@$    ",
".......$$$$$$@@@***$$$@@@@$$    ",
"+#==###$$$$@$@@@$$$$$$@@@@$  ==+",
"++##+##$$$$$$@@@$$@$$$@@@$$ .+++",
"+++####$$$$$$@$@$$@@$$@@@$$ ..++",
"+++++##$$$$$$@$@$$@@$$@@@$$  .++",
"++++++#.$$$$$@$@$@$@$$@$@$$  ..+",
"++++++#. $$$$@$@$@$@$$@$ $$.  + "};
